# xmcd CD database file
#
# Track frame offsets:
#	225
#	33306
#	67715
#	110316
#	146742
#	184302
#	218802
#	247308
#
# Disc length: 3823 seconds
#
# Revision: 2
# Processed by: cddbd v1.5.2PL0 Copyright (c) Steve Scherf et al.
# Submitted via: CDex 1.70beta2
#
DISCID=750eec08
DTITLE=Country zpěváci - Country mejdlo
DYEAR=2000
DGENRE=Country
TTITLE0=Az si jednou (Krestan) - Poveste ho vejs (Tucny) - Posledni kovboj (Tucny) - Na ceste (Danek) - Co dat sve lasce (Martinova, Jisova) - Porad cestuju sam (Vycital)
TTITLE1=Ma lejdy je vino (Zalman) - Sadar a vandraci (Molavcova) - Panenka (Krestan) - Vitr safian (AG Flek) - Nechod do klastera (Ulrychovi) - Kluci to taky nemaj lehky (Danek)
TTITLE2=Ona se brani (Cernoch) - Ja ti zpivam (Zich) - Rana v trave (Zalman) - Az na vrcholky hor (sbor) - Maly dum nad skalou (sbor) - Abych tu zil (Tucny)
TTITLE3=Neni vsechno parada (Zich) - Franta ma pera (Danek) - Koukej se mnou si pisen broukej (Cernocka) - Ja bych se v kocarku vozil (Zalman) - Mela baba trnku (Ulrychovi) - Tenisova hymna (Palecek, Jahelka)
TTITLE4=Ranec plnej pisni (Marsalkova, Nedved) - Vraceci kocour (Vycital) - Cervena reka (Tucny) - Tom Dooley (Vodicka) - Odjizdim (Ryvolove) - V busi je domov muj (Hoffmann, Zelenaci)
TTITLE5=Zrcadlo (Cernoch) - Nad nami vlajka hvezdnata (Taxmeni) - Maly veky muz (Marsalek, Pacifik) - Kobylka (Bobek, Nopova) - Velrybarska vyprava (Pacifik) - Krvava Marie (Krestan, Druha trava)
TTITLE6=Tam za morem piva (Suchy, Greenhorns) - Vis, kdo ti smi z tvych vlasku copy splest (Bobek, Nopova) - Ja se neztratim (Spaleny, Schovanky) - Rad se brouzdam rosou (Tucny) - Koukam, jak cela zeme vstava (Tucny) - Kazda holka mava (Taxmeni)
TTITLE7=Erie Canal (Bobek, Greenhorns) - Jo, vsichni to maj (Taxmeni) - Mejdan ve stodole (Schovanky) - Tanecnice (Krestan, Druha trava) - Plzensky (Cerny) - To tenkrat v ctyricatom patom (Vycital, Bobek)
EXTD=YEAR: 2000
EXTT0=
EXTT1=
EXTT2=
EXTT3=
EXTT4=
EXTT5=
EXTT6=
EXTT7=
PLAYORDER=
